# xmcd
#
# Track frame offsets: 
#        150
#        23290
#        49309
#        65712
#        94332
#        119356
#        141777
#        156033
#        173246
#
# Disc length: 2548 seconds
#
# Revision: 2
# Processed by: cddbd v1.5.2PL0 Copyright (c) Steve Scherf et al.
# Submitted via: ExactAudioCopy v0.95b4
#
DISCID=7609f209
DTITLE=Johnny Adams - Room with a view of the Blues
DYEAR=1988
DGENRE=Blues
TTITLE0=Room With A View
TTITLE1=I Don't Want To Do Wrong
TTITLE2=Not Trustworthy (A Lyin' Woman)
TTITLE3=Neither One Of Us (Wants To Be The First to Say Goodbye)
TTITLE4=Body And Fender Man
TTITLE5=I Owe You
TTITLE6=Wish I'd Never Loved You At All
TTITLE7=The Hunt Is On
TTITLE8=A World I Never Made
EXTD=
EXTT0=
EXTT1=
EXTT2=
EXTT3=
EXTT4=
EXTT5=
EXTT6=
EXTT7=
EXTT8=
PLAYORDER=
